<?xml version="1.0" encoding="utf-8"?>
<!-- Generator: Adobe Illustrator 18.0.0, SVG Export Plug-In . SVG Version: 6.00 Build 0)  -->
<!DOCTYPE svg PUBLIC "-//W3C//DTD SVG 1.1//EN" "http://www.w3.org/Graphics/SVG/1.1/DTD/svg11.dtd">
<svg version="1.1" id="Layer_1" xmlns="http://www.w3.org/2000/svg" xmlns:xlink="http://www.w3.org/1999/xlink" x="0px" y="0px"
	 viewBox="0 0 100 100" enable-background="new 0 0 100 100" xml:space="preserve">
<linearGradient id="SVGID_1_" gradientUnits="userSpaceOnUse" x1="65.1737" y1="17.3687" x2="63.656" y2="28.9743">
	<stop  offset="1.530610e-02" style="stop-color:#FDBB3C"/>
	<stop  offset="1" style="stop-color:#F78F27"/>
</linearGradient>
<path fill-rule="evenodd" clip-rule="evenodd" fill="url(#SVGID_1_)" d="M40.8,13.9l0.4,1.8C29.4,32,44.4,30.6,44.4,30.6
	s0.7-0.1,1.9-0.2l0.3,0.4c28-2.1,43.3,7.7,43.3,7.7C91.9,15.1,40.8,13.9,40.8,13.9z"/>
<linearGradient id="SVGID_2_" gradientUnits="userSpaceOnUse" x1="38.2783" y1="80.5853" x2="29.1528" y2="32.2586">
	<stop  offset="0.1888" style="stop-color:#00395D"/>
	<stop  offset="0.6122" style="stop-color:#00456E"/>
	<stop  offset="1" style="stop-color:#005C8E"/>
</linearGradient>
<path fill="url(#SVGID_2_)" d="M45.6,38.4c-1.8-2.2,0.3-6.6-2.3-10.2c-2.1-2.9,1.4,1.1-0.3-3.2c-0.4-0.9-0.1-2-0.2-3.3
	c-0.2-2.3-0.7-6.1-0.7-6.1s-2-2-3.1-1.4c0,0-6.2-4.4-13.2,0.2c0,0-25.6,16.4-2.5,47.9c-0.7,4.1-0.5,7.7,1.3,10.5c0,1,0,2.1,0.5,2.8
	c0.4-0.6,0.3-2,1-2c-0.8,5.4-0.4,7.5,2.2,11.3c0.4-2.9,1.3-1.7,2-3.4c1.9-2.5,3.2-6.6,4.1-10.4C34.7,70.5,56.3,50.6,45.6,38.4z"/>
<linearGradient id="SVGID_3_" gradientUnits="userSpaceOnUse" x1="34.2987" y1="21.9731" x2="21.3418" y2="63.3923">
	<stop  offset="0" style="stop-color:#FBFCFC"/>
	<stop  offset="1" style="stop-color:#BECDD4"/>
</linearGradient>
<path fill="url(#SVGID_3_)" d="M39.3,32.9l-3.5-15.8c0,0-2-6.1-7.4,1.6l-0.9-1.2c0,0-3.9,5.5-4.2,6c-2.1,3.2-7.1,11.3-6,18.5h0
	c0,0,0.5,5.5,5.2,8.3c1,0.6,6.9,4.8,13.9-1.2C39.4,46.8,41.7,42,39.3,32.9z"/>
<linearGradient id="SVGID_4_" gradientUnits="userSpaceOnUse" x1="-47.3131" y1="-81.4291" x2="-46.6558" y2="-69.8153" gradientTransform="matrix(1.0392 5.070000e-02 -4.870000e-02 0.9988 77.7286 100.3278)">
	<stop  offset="1.530610e-02" style="stop-color:#FDBB3C"/>
	<stop  offset="1" style="stop-color:#F78F27"/>
</linearGradient>
<path fill="url(#SVGID_4_)" d="M39.5,22c1.1,6-2.7,7-7.1,6.6c-6.2-0.5-7.5-3.6-6.5-7.3c1.1-4.1,3.4-6.8,7.1-6.6
	C36.7,14.9,38.8,18.2,39.5,22z"/>
<linearGradient id="SVGID_5_" gradientUnits="userSpaceOnUse" x1="-46.6081" y1="-108.1474" x2="-46.8496" y2="-91.3574" gradientTransform="matrix(1.0385 6.230000e-02 -5.980000e-02 0.9982 75.4243 123.8102)">
	<stop  offset="0.4031" style="stop-color:#005C8E"/>
	<stop  offset="0.7398" style="stop-color:#00456E"/>
</linearGradient>
<path fill="url(#SVGID_5_)" d="M36.9,21.7c0.6,3.6-1.7,4.2-4.3,3.9c-3.7-0.3-4.5-2.2-3.8-4.4c0.7-2.5,2.1-4.1,4.3-3.9
	C35.3,17.4,36.5,19.4,36.9,21.7z"/>
<circle fill-rule="evenodd" clip-rule="evenodd" fill="#030303" cx="32.9" cy="21.2" r="2.5"/>
<path fill="#FCB124" d="M45.9,31"/>
<path fill="#00456E" d="M44.6,31.6c0,0-2.2-4.6-2.3-4.9c1.3-9.6-3.7-12-3.4-12.5c2.5-1,3.7,0.7,4.1,1.5c3.3,6.9,0.9,10.2,0.9,10
	c-0.5,3.4,2.6,5.1,2.6,5.1"/>
<linearGradient id="SVGID_6_" gradientUnits="userSpaceOnUse" x1="65.6813" y1="39.0924" x2="67.9577" y2="25.5674">
	<stop  offset="0.4592" style="stop-color:#F37346"/>
	<stop  offset="1" style="stop-color:#F78F27"/>
</linearGradient>
<path fill-rule="evenodd" clip-rule="evenodd" fill="url(#SVGID_6_)" d="M46.6,30.8c0,0,24.5-2.6,43.3,7.7c0,0-17.7-15.7-45.9-12.8
	C44,25.7,42,29.6,46.6,30.8z"/>
<path fill-rule="evenodd" clip-rule="evenodd" fill="#00395D" d="M44,25.7c0,0-1.2,0.1-1.5-0.5c0,0-1.2,2.7,2.1,6.4
	c0,0,1.5-0.3,2-0.8C46.6,30.8,43.7,29.1,44,25.7z"/>
<circle fill-rule="evenodd" clip-rule="evenodd" fill="#FFFFFF" cx="33" cy="19.6" r="0.2"/>
<linearGradient id="SVGID_7_" gradientUnits="userSpaceOnUse" x1="49.0828" y1="20.1337" x2="48.0115" y2="25.0887">
	<stop  offset="0.398" style="stop-color:#F47531"/>
	<stop  offset="1" style="stop-color:#F78F27"/>
</linearGradient>
<path opacity="0.6" fill-rule="evenodd" clip-rule="evenodd" fill="url(#SVGID_7_)" d="M47.8,25.4c0,0,1.3-3,0.8-8.2
	c0.6,1.4,0.8,2.8,0.5,8.2"/>
<linearGradient id="SVGID_8_" gradientUnits="userSpaceOnUse" x1="53.3827" y1="20.7237" x2="52.4318" y2="25.1216">
	<stop  offset="0.398" style="stop-color:#F47531"/>
	<stop  offset="1" style="stop-color:#F78F27"/>
</linearGradient>
<path opacity="0.5" fill-rule="evenodd" clip-rule="evenodd" fill="url(#SVGID_8_)" d="M52.2,25.4c0,0,1.1-2.6,0.7-7.3
	c0.6,1.3,0.7,2.5,0.4,7.3"/>
<linearGradient id="SVGID_9_" gradientUnits="userSpaceOnUse" x1="57.4223" y1="21.6843" x2="56.5855" y2="25.5546">
	<stop  offset="0.398" style="stop-color:#F47531"/>
	<stop  offset="1" style="stop-color:#F78F27"/>
</linearGradient>
<path opacity="0.5" fill-rule="evenodd" clip-rule="evenodd" fill="url(#SVGID_9_)" d="M56.4,25.8c0,0,1-2.3,0.6-6.4
	c0.5,1.1,0.6,2.2,0.4,6.4"/>
<linearGradient id="SVGID_10_" gradientUnits="userSpaceOnUse" x1="61.4691" y1="22.4341" x2="60.7307" y2="25.8493">
	<stop  offset="0.398" style="stop-color:#F47531"/>
	<stop  offset="1" style="stop-color:#F78F27"/>
</linearGradient>
<path opacity="0.5" fill-rule="evenodd" clip-rule="evenodd" fill="url(#SVGID_10_)" d="M60.6,26.1c0,0,0.9-2.1,0.6-5.6
	c0.4,1,0.5,1.9,0.3,5.6"/>
<linearGradient id="SVGID_11_" gradientUnits="userSpaceOnUse" x1="12.1309" y1="556.3293" x2="31.1452" y2="559.1558" gradientTransform="matrix(0.9857 0.2725 0.31 -0.9933 -148.0753 574.7496)">
	<stop  offset="0.4388" style="stop-color:#F05235"/>
	<stop  offset="0.4694" style="stop-color:#F04F35"/>
	<stop  offset="1" style="stop-color:#F78F27"/>
</linearGradient>
<path fill-rule="evenodd" clip-rule="evenodd" fill="url(#SVGID_11_)" d="M52.4,25.5c0,0,0.2,1.5-0.8,3.9c0.5-0.6,1.1-1.4,1.8-4"/>
<linearGradient id="SVGID_12_" gradientUnits="userSpaceOnUse" x1="16.0227" y1="557.2036" x2="35.044" y2="560.0311" gradientTransform="matrix(0.9857 0.2725 0.31 -0.9933 -148.0753 574.7496)">
	<stop  offset="0.4388" style="stop-color:#F05235"/>
	<stop  offset="0.4694" style="stop-color:#F04F35"/>
	<stop  offset="1" style="stop-color:#F78F27"/>
</linearGradient>
<path opacity="0.7" fill-rule="evenodd" clip-rule="evenodd" fill="url(#SVGID_12_)" d="M56.5,25.7c0,0,0.2,1.5-0.8,3.9
	c0.5-0.6,1.1-1.4,1.8-4"/>
<linearGradient id="SVGID_13_" gradientUnits="userSpaceOnUse" x1="21.6814" y1="558.4194" x2="38.5083" y2="560.9207" gradientTransform="matrix(0.9857 0.2725 0.31 -0.9933 -148.0753 574.7496)">
	<stop  offset="0.4388" style="stop-color:#F05235"/>
	<stop  offset="0.4694" style="stop-color:#F04F35"/>
	<stop  offset="1" style="stop-color:#F78F27"/>
</linearGradient>
<path opacity="0.3" fill-rule="evenodd" clip-rule="evenodd" fill="url(#SVGID_13_)" d="M60.6,26.1c0,0,0.1,1.3-0.7,3.2
	c0.4-0.5,1-1,1.5-3"/>
<linearGradient id="SVGID_14_" gradientUnits="userSpaceOnUse" x1="-808.2673" y1="978.3298" x2="-792.6535" y2="980.6508" gradientTransform="matrix(0.7793 9.740000e-02 0.2218 -0.8163 471.2346 906.7922)">
	<stop  offset="0.4388" style="stop-color:#F05235"/>
	<stop  offset="0.4694" style="stop-color:#F04F35"/>
	<stop  offset="1" style="stop-color:#F78F27"/>
</linearGradient>
<path opacity="0.5" fill-rule="evenodd" clip-rule="evenodd" fill="url(#SVGID_14_)" d="M68.7,27.7c0,0,0.1,1.3-0.4,2.9
	c0.3-0.4,0.7-1,1.1-2.7"/>
<linearGradient id="SVGID_15_" gradientUnits="userSpaceOnUse" x1="-760.8295" y1="638.4985" x2="-745.2278" y2="640.8176" gradientTransform="matrix(0.765 0.1775 0.3051 -0.7889 448.3533 667.9687)">
	<stop  offset="0.4388" style="stop-color:#F05235"/>
	<stop  offset="0.4694" style="stop-color:#F04F35"/>
	<stop  offset="1" style="stop-color:#F78F27"/>
</linearGradient>
<path opacity="0.5" fill-rule="evenodd" clip-rule="evenodd" fill="url(#SVGID_15_)" d="M71.6,28.6c0,0-0.1,1.2-0.8,2.7
	c0.3-0.4,0.8-1,1.4-2.6"/>
<linearGradient id="SVGID_16_" gradientUnits="userSpaceOnUse" x1="-680.6121" y1="322.9288" x2="-667.9573" y2="324.8099" gradientTransform="matrix(0.7448 0.2491 0.3784 -0.7565 450.7609 443.1551)">
	<stop  offset="0.4388" style="stop-color:#F05235"/>
	<stop  offset="0.4694" style="stop-color:#F04F35"/>
	<stop  offset="1" style="stop-color:#F78F27"/>
</linearGradient>
<path opacity="0.5" fill-rule="evenodd" clip-rule="evenodd" fill="url(#SVGID_16_)" d="M74.5,29.6c0,0-0.1,1.1-0.8,2.2
	c0.3-0.3,0.7-0.7,1.3-2"/>
<linearGradient id="SVGID_17_" gradientUnits="userSpaceOnUse" x1="89.3847" y1="32.0885" x2="85.0452" y2="33.8426">
	<stop  offset="5.102040e-03" style="stop-color:#4A1400"/>
	<stop  offset="1" style="stop-color:#722F01"/>
</linearGradient>
<path fill="url(#SVGID_17_)" d="M89.9,38.5c0,0,1.1-6.3-4.3-11.5c0.1,0.1-6.9,3.3,2.6,9.8C88.9,37.3,89.7,37.9,89.9,38.5"/>
<linearGradient id="SVGID_18_" gradientUnits="userSpaceOnUse" x1="8.0084" y1="555.1336" x2="27.0225" y2="557.96" gradientTransform="matrix(0.9857 0.2725 0.31 -0.9933 -148.0753 574.7496)">
	<stop  offset="0.4388" style="stop-color:#F05235"/>
	<stop  offset="0.4694" style="stop-color:#F04F35"/>
	<stop  offset="1" style="stop-color:#F78F27"/>
</linearGradient>
<path fill-rule="evenodd" clip-rule="evenodd" fill="url(#SVGID_18_)" d="M47.9,25.6c0,0,0.2,1.5-0.8,3.9c0.5-0.6,1.1-1.4,1.8-4"/>
<linearGradient id="SVGID_19_" gradientUnits="userSpaceOnUse" x1="75.0108" y1="26.84" x2="74.4063" y2="29.6359">
	<stop  offset="0.398" style="stop-color:#F47531"/>
	<stop  offset="1" style="stop-color:#F78F27"/>
</linearGradient>
<path opacity="0.3" fill-rule="evenodd" clip-rule="evenodd" fill="url(#SVGID_19_)" d="M74.3,29.8c0,0,0.7-1.7,0.5-4.6
	c0.4,0.8,0.4,1.6,0.3,4.6"/>
<linearGradient id="SVGID_20_" gradientUnits="userSpaceOnUse" x1="72.2703" y1="25.8531" x2="71.6658" y2="28.6491">
	<stop  offset="0.398" style="stop-color:#F47531"/>
	<stop  offset="1" style="stop-color:#F78F27"/>
</linearGradient>
<path opacity="0.2" fill-rule="evenodd" clip-rule="evenodd" fill="url(#SVGID_20_)" d="M71.5,28.8c0,0,0.7-1.7,0.5-4.6
	c0.4,0.8,0.4,1.6,0.3,4.6"/>
<linearGradient id="SVGID_21_" gradientUnits="userSpaceOnUse" x1="69.31" y1="24.7718" x2="68.7054" y2="27.5679">
	<stop  offset="0.398" style="stop-color:#F47531"/>
	<stop  offset="1" style="stop-color:#F78F27"/>
</linearGradient>
<path opacity="0.2" fill-rule="evenodd" clip-rule="evenodd" fill="url(#SVGID_21_)" d="M68.6,27.7c0,0,0.7-1.7,0.5-4.6
	c0.4,0.8,0.4,1.6,0.3,4.6"/>
<path opacity="0.18" fill-rule="evenodd" clip-rule="evenodd" fill="#FFFFFF" d="M40.2,15.8c0,0,40.4,1.4,45.4,16.7
	c0,0.1-3.9-11.5-44-14.3C41.6,18.3,41,16.8,40.2,15.8z"/>
<linearGradient id="SVGID_22_" gradientUnits="userSpaceOnUse" x1="39.38" y1="14.8257" x2="39.38" y2="14.8257">
	<stop  offset="0.1888" style="stop-color:#003D5B"/>
	<stop  offset="0.6122" style="stop-color:#04476D"/>
	<stop  offset="1" style="stop-color:#3263A7"/>
</linearGradient>
<path fill-rule="evenodd" clip-rule="evenodd" fill="url(#SVGID_22_)" d="M39.4,14.8"/>
<linearGradient id="SVGID_23_" gradientUnits="userSpaceOnUse" x1="-234.1461" y1="1311.252" x2="-240.4847" y2="1325.7148" gradientTransform="matrix(0.8637 -0.504 0.504 0.8637 -429.9304 -1173.4816)">
	<stop  offset="0.1888" style="stop-color:#00395D"/>
	<stop  offset="0.6122" style="stop-color:#00517D"/>
</linearGradient>
<path fill="url(#SVGID_23_)" d="M28.5,74.1c0,0,4,12.8,0.6,10.9C29,85.1,27.4,83.8,28.5,74.1z"/>
<linearGradient id="SVGID_24_" gradientUnits="userSpaceOnUse" x1="33.153" y1="122.6626" x2="26.8142" y2="137.1257" gradientTransform="matrix(0.9997 -2.430000e-02 2.430000e-02 0.9997 -3.0909 -47.7872)">
	<stop  offset="0.1888" style="stop-color:#00395D"/>
	<stop  offset="0.6122" style="stop-color:#00517D"/>
</linearGradient>
<path fill="url(#SVGID_24_)" d="M34.3,71.4c0,0-2.7,13.1-4.8,9.8C29.4,81.2,28.6,79.3,34.3,71.4z"/>
<linearGradient id="SVGID_25_" gradientUnits="userSpaceOnUse" x1="43.9731" y1="31.9045" x2="89.9036" y2="31.9045">
	<stop  offset="1.530610e-02" style="stop-color:#FDBB3C"/>
	<stop  offset="1" style="stop-color:#F78F27"/>
</linearGradient>
<path fill-rule="evenodd" clip-rule="evenodd" fill="url(#SVGID_25_)" d="M89.9,38.5c0,0-16.6-15.9-45.9-12.8c0,0,0,0.1,0,0.2
	C44,26,68.8,21.7,89.9,38.5z"/>
<linearGradient id="SVGID_26_" gradientUnits="userSpaceOnUse" x1="17.0003" y1="37.8831" x2="17.7253" y2="46.1004">
	<stop  offset="1.020410e-02" style="stop-color:#005C8E"/>
	<stop  offset="0.8112" style="stop-color:#00456E"/>
	<stop  offset="1" style="stop-color:#00456E"/>
</linearGradient>
<path fill="url(#SVGID_26_)" d="M13.6,37.1c0,0-0.9,10.4,8.8,24c0.1,0.1-12.4-18.4-3.5-29.5"/>
<path fill="#003255" d="M32,69.7c0,0,1.5,9.8-0.8,8.1C31.1,77.7,30.1,76.6,32,69.7z"/>
<path fill="#00395D" d="M26.9,66c0,0-0.7,9.9-2.6,7.7C24.3,73.6,22.6,71.3,26.9,66z"/>
<path fill="#003255" d="M26.8,78c0,0,4.2,8.9,1.5,7.9C28.2,85.9,25.5,84.7,26.8,78z"/>
<linearGradient id="SVGID_27_" gradientUnits="userSpaceOnUse" x1="-248.5304" y1="1271.9644" x2="-246.3878" y2="1285.791" gradientTransform="matrix(0.8713 -0.4907 0.4907 0.8713 -383.0488 -1154.9528)">
	<stop  offset="0.1888" style="stop-color:#00395D"/>
	<stop  offset="0.6122" style="stop-color:#00517D"/>
</linearGradient>
<path fill="url(#SVGID_27_)" d="M26.3,73.3c0,0,2.9,10,0.3,8.5C26.5,81.9,25.2,80.8,26.3,73.3z"/>
<linearGradient id="SVGID_28_" gradientUnits="userSpaceOnUse" x1="-195.3745" y1="1158.3495" x2="-194.9728" y2="1172.5438" gradientTransform="matrix(0.8937 -0.4487 0.4487 0.8937 -318.6104 -1049.4625)">
	<stop  offset="0.1888" style="stop-color:#00395D"/>
	<stop  offset="0.6122" style="stop-color:#00517D"/>
</linearGradient>
<path fill="url(#SVGID_28_)" d="M27.4,70.9c0,0,2.2,9.3-0.1,7.8C27.2,78.8,26.1,77.7,27.4,70.9z"/>
<g>
	
		<linearGradient id="SVGID_29_" gradientUnits="userSpaceOnUse" x1="-33.6595" y1="-468.7107" x2="-33.6595" y2="-468.7107" gradientTransform="matrix(0.9743 0.2252 -0.2252 0.9743 -45.2237 528.6183)">
		<stop  offset="0.1888" style="stop-color:#00395D"/>
		<stop  offset="0.6122" style="stop-color:#00517D"/>
	</linearGradient>
	<path fill="url(#SVGID_29_)" d="M27.5,64.4"/>
	
		<linearGradient id="SVGID_30_" gradientUnits="userSpaceOnUse" x1="-32.6448" y1="-465.8095" x2="-35.0889" y2="-454.1249" gradientTransform="matrix(0.9743 0.2252 -0.2252 0.9743 -45.2237 528.6183)">
		<stop  offset="0.1888" style="stop-color:#00395D"/>
		<stop  offset="0.6122" style="stop-color:#00517D"/>
	</linearGradient>
	<path fill="url(#SVGID_30_)" d="M27.5,64.4c0,0.8-1.8,7.9-2.7,9.2c-0.8,1.2-0.5,2.2,0.5,2C27.1,75.5,27.5,67.8,27.5,64.4z"/>
</g>
<linearGradient id="SVGID_31_" gradientUnits="userSpaceOnUse" x1="40.5101" y1="59.3464" x2="48.7324" y2="36.4187">
	<stop  offset="0.1888" style="stop-color:#00395D"/>
	<stop  offset="0.6122" style="stop-color:#00456E"/>
	<stop  offset="1" style="stop-color:#005C8E"/>
</linearGradient>
<path fill="url(#SVGID_31_)" d="M42.8,39.9c0,0,1.2-4.3,3.8-0.2c0,0.1,7.8,10.8-7.2,23.9c-0.1,0.1,12.4-17.2,3.4-23.4"/>
<path fill-rule="evenodd" clip-rule="evenodd" fill="#003255" d="M22.5,61.1c0,0,11.6,18.2,24.6-7.2C47.1,53.8,36.3,71.8,22.5,61.1z
	"/>
<path fill="#793810" d="M10.3,61.2c0,0,4,1.6,7.3,0.5c3.4,0.5,5.2,1.5,9.3,2c4.2,0,11.5-0.6,14.9-1c3.4-0.4,6.2,0.8,6.7,1
	c0.4,0.2,0.5,3.7,0.5,3.7s-6.1-2.2-10.1-1.9c-4,0.2-12,0.1-12,0.1s-4.3-0.2-7.7-1.1c-2.9-0.9-7.1-1-8.8-2.6
	C10.2,61.6,10.4,61.5,10.3,61.2z"/>
<path fill="#4A1400" d="M48.9,66.5c0,0-8.4-2.5-16-1.3c0,0.1-10.4,0-13.8-1.6c-0.3,0.7-7.7-1.4-8.8-2.3c-0.4-0.1-1.8,1.3,10.3,3.8
	c1.1,0,9.6,1.4,14.8,0.5c0.5,0,9.1,0.2,13.5,1.8L48.9,66.5z"/>
<path fill="#4A1400" d="M48.8,64.9c0,0-4.7-1-8.3-1.2c0.2,0,3.9-0.3,8.3,0.9C48.8,64.9,48.8,64.9,48.8,64.9z"/>
<path fill="#4A1400" d="M39.4,63.6c0,0-5.1-0.2-6.2,0.6C33.1,64.2,37.8,63.6,39.4,63.6z"/>
<path fill="#4A1400" d="M24.3,64.8c0,0-3.6-1.5-6.3-2.2c0,0,5.9,1,7.9,2.6"/>
<path fill="#4A1400" d="M48.9,65.8c0,0-7.2-2.1-10.4-1.6c0,0-2.5,0.2-2.5,0.2s2.8-0.8,6.8-0.1c0,0,6.1,1.3,6.1,1.3"/>
<linearGradient id="SVGID_32_" gradientUnits="userSpaceOnUse" x1="40.8958" y1="69.2954" x2="41.3188" y2="61.441">
	<stop  offset="0.4388" style="stop-color:#141414"/>
	<stop  offset="1" style="stop-color:#666666"/>
</linearGradient>
<path fill="url(#SVGID_32_)" d="M42.2,64.5c0,0.6-0.5,1.8-1,1.8l0,0c-0.5,0-1-1.2-1-1.8v-2c0-0.6,0.4-1.1,0.8-1.1h0
	c0.5,0,1.1,0.6,1.1,1.1V64.5z"/>
<g opacity="0.35">
	<path fill="#F5F6F6" d="M41.1,61.3L41.1,61.3c-0.2,0-0.3,0.1-0.5,0.2c0.3,0.2,0.6,0.6,0.6,1v2c0,0.4-0.2,1-0.5,1.4
		c0.1,0.2,0.3,0.4,0.5,0.4c0.5,0,1-1.2,1-1.8v-2C42.2,61.9,41.6,61.3,41.1,61.3z"/>
</g>
<g opacity="0.6">
	<linearGradient id="SVGID_33_" gradientUnits="userSpaceOnUse" x1="41.3406" y1="66.6328" x2="39.9106" y2="57.0667">
		<stop  offset="0.4388" style="stop-color:#141414"/>
		<stop  offset="1" style="stop-color:#666666"/>
	</linearGradient>
	<path fill="url(#SVGID_33_)" d="M40.7,64.5v-2c0-0.5,0.2-1,0.6-1.1c-0.1,0-0.2,0-0.2,0h0c-0.5,0-0.8,0.6-0.8,1.1v2
		c0,0.6,0.5,1.8,1,1.8c0.1,0,0.2,0,0.2-0.1C41.1,65.8,40.7,64.9,40.7,64.5z"/>
</g>
<linearGradient id="SVGID_34_" gradientUnits="userSpaceOnUse" x1="39.3011" y1="67.8864" x2="39.6018" y2="62.4572">
	<stop  offset="0.4388" style="stop-color:#141414"/>
	<stop  offset="1" style="stop-color:#666666"/>
</linearGradient>
<path fill="url(#SVGID_34_)" d="M40.2,64.7c0,0.4-0.4,1.4-0.7,1.4l0,0c-0.4,0-0.7-0.9-0.7-1.4v-1.6c0-0.4,0.3-0.9,0.6-0.9h0
	c0.4,0,0.8,0.5,0.8,0.9V64.7z"/>
<g opacity="0.3">
	<path fill="#F5F6F6" d="M39.5,62.3L39.5,62.3c-0.1,0-0.2,0-0.3,0.1c0.2,0.2,0.6,0.5,0.6,0.8v1.6c0,0.3-0.3,0.8-0.6,1.1
		c0.1,0.2,0.2,0.2,0.4,0.2c0.4,0,0.7-0.9,0.7-1.4v-1.6C40.2,62.7,39.8,62.3,39.5,62.3z"/>
</g>
<g opacity="0.6">
	<linearGradient id="SVGID_35_" gradientUnits="userSpaceOnUse" x1="39.6992" y1="66.4453" x2="38.5764" y2="58.9342">
		<stop  offset="0.4388" style="stop-color:#141414"/>
		<stop  offset="1" style="stop-color:#666666"/>
	</linearGradient>
	<path fill="url(#SVGID_35_)" d="M39.3,64.7v-1.6c0-0.4,0.2-0.7,0.5-0.8c-0.1,0-0.1-0.1-0.3-0.1h0c-0.4,0-0.6,0.5-0.6,0.9v1.6
		c0,0.4,0.4,1.4,0.8,1.4c0.1,0,0.2-0.1,0.2-0.2C39.5,65.7,39.3,65.1,39.3,64.7z"/>
</g>
<g>
	
		<linearGradient id="SVGID_36_" gradientUnits="userSpaceOnUse" x1="-3940.8711" y1="69.2954" x2="-3940.4482" y2="61.441" gradientTransform="matrix(-1 0 0 1 -3918.1963 0)">
		<stop  offset="0.4388" style="stop-color:#141414"/>
		<stop  offset="1" style="stop-color:#666666"/>
	</linearGradient>
	<path fill="url(#SVGID_36_)" d="M21.4,64.5c0,0.6,0.5,1.8,1,1.8l0,0c0.5,0,1-1.2,1-1.8v-2c0-0.6-0.4-1.1-0.8-1.1h0
		c-0.5,0-1.1,0.6-1.1,1.1V64.5z"/>
	<g opacity="0.35">
		<path fill="#F5F6F6" d="M22.5,61.3L22.5,61.3c0.2,0,0.3,0.1,0.5,0.2c-0.3,0.2-0.6,0.6-0.6,1v2c0,0.4,0.2,1,0.5,1.4
			c-0.1,0.2-0.3,0.4-0.5,0.4c-0.5,0-1-1.2-1-1.8v-2C21.4,61.9,22,61.3,22.5,61.3z"/>
	</g>
	<g opacity="0.6">
		
			<linearGradient id="SVGID_37_" gradientUnits="userSpaceOnUse" x1="-3940.4263" y1="66.6328" x2="-3941.8562" y2="57.0667" gradientTransform="matrix(-1 0 0 1 -3918.1963 0)">
			<stop  offset="0.4388" style="stop-color:#141414"/>
			<stop  offset="1" style="stop-color:#666666"/>
		</linearGradient>
		<path fill="url(#SVGID_37_)" d="M22.8,64.5v-2c0-0.5-0.2-1-0.6-1.1c0.1,0,0.2,0,0.2,0h0c0.5,0,0.8,0.6,0.8,1.1v2
			c0,0.6-0.5,1.8-1,1.8c-0.1,0-0.2,0-0.2-0.1C22.5,65.8,22.8,64.9,22.8,64.5z"/>
	</g>
	
		<linearGradient id="SVGID_38_" gradientUnits="userSpaceOnUse" x1="-3942.4658" y1="67.8864" x2="-3942.165" y2="62.4572" gradientTransform="matrix(-1 0 0 1 -3918.1963 0)">
		<stop  offset="0.4388" style="stop-color:#141414"/>
		<stop  offset="1" style="stop-color:#666666"/>
	</linearGradient>
	<path fill="url(#SVGID_38_)" d="M23.3,64.7c0,0.4,0.4,1.4,0.7,1.4l0,0c0.4,0,0.7-0.9,0.7-1.4v-1.6c0-0.4-0.3-0.9-0.6-0.9h0
		c-0.4,0-0.8,0.5-0.8,0.9V64.7z"/>
	<g opacity="0.3">
		<path fill="#F5F6F6" d="M24.1,62.3L24.1,62.3c0.1,0,0.2,0,0.3,0.1c-0.2,0.2-0.6,0.5-0.6,0.8v1.6c0,0.3,0.3,0.8,0.6,1.1
			c-0.1,0.2-0.2,0.2-0.4,0.2c-0.4,0-0.7-0.9-0.7-1.4v-1.6C23.3,62.7,23.7,62.3,24.1,62.3z"/>
	</g>
	<g opacity="0.6">
		
			<linearGradient id="SVGID_39_" gradientUnits="userSpaceOnUse" x1="-3942.0676" y1="66.4453" x2="-3943.1904" y2="58.9342" gradientTransform="matrix(-1 0 0 1 -3918.1963 0)">
			<stop  offset="0.4388" style="stop-color:#141414"/>
			<stop  offset="1" style="stop-color:#666666"/>
		</linearGradient>
		<path fill="url(#SVGID_39_)" d="M24.3,64.7v-1.6c0-0.4-0.2-0.7-0.5-0.8c0.1,0,0.1-0.1,0.3-0.1h0c0.4,0,0.6,0.5,0.6,0.9v1.6
			c0,0.4-0.4,1.4-0.8,1.4c-0.1,0-0.2-0.1-0.2-0.2C24.1,65.7,24.3,65.1,24.3,64.7z"/>
	</g>
</g>
<path fill-rule="evenodd" clip-rule="evenodd" fill="#FFFFFF" d="M31.8,19.6c-0.3,0.1-0.3,0.3-0.3,0.6c0,0,0,0-0.1,0
	c-0.2,0.1-0.2,0.2-0.2,0.4c0,0.3,0.1,0.4,0.2,0.3c0.2-0.2,0-0.4,1.1-0.9C32.7,19.8,32,19.5,31.8,19.6z"/>
</svg>
